<mxfile host="app.diagrams.net" modified="2023-04-02T07:50:36.943Z" agent="Mozilla/5.0 (Macintosh; Intel Mac OS X 10_15_7) AppleWebKit/537.36 (KHTML, like Gecko) Chrome/111.0.0.0 Safari/537.36" etag="AcfWbgmIhCSZxBjqxhIO" version="21.1.2" type="github">
  <diagram id="v9VeEew0eSVK_gECYCmD" name="Page-1">
    <mxGraphModel dx="1003" dy="1029" grid="0" gridSize="10" guides="1" tooltips="1" connect="1" arrows="0" fold="1" page="0" pageScale="1" pageWidth="827" pageHeight="1169" math="0" shadow="0">
      <root>
        <mxCell id="0" />
        <mxCell id="1" parent="0" />
        <mxCell id="GBpQVhTk9KxDPRQjgbmB-8" style="edgeStyle=orthogonalEdgeStyle;rounded=0;orthogonalLoop=1;jettySize=auto;html=1;exitX=1;exitY=0.5;exitDx=0;exitDy=0;entryX=0;entryY=0.5;entryDx=0;entryDy=0;" parent="1" source="GBpQVhTk9KxDPRQjgbmB-1" target="GBpQVhTk9KxDPRQjgbmB-3" edge="1">
          <mxGeometry relative="1" as="geometry" />
        </mxCell>
        <mxCell id="GBpQVhTk9KxDPRQjgbmB-9" style="edgeStyle=orthogonalEdgeStyle;rounded=0;orthogonalLoop=1;jettySize=auto;html=1;exitX=1;exitY=0.5;exitDx=0;exitDy=0;entryX=0;entryY=0.5;entryDx=0;entryDy=0;" parent="1" source="GBpQVhTk9KxDPRQjgbmB-1" target="GBpQVhTk9KxDPRQjgbmB-2" edge="1">
          <mxGeometry relative="1" as="geometry" />
        </mxCell>
        <mxCell id="GBpQVhTk9KxDPRQjgbmB-10" style="edgeStyle=orthogonalEdgeStyle;rounded=0;orthogonalLoop=1;jettySize=auto;html=1;exitX=1;exitY=0.5;exitDx=0;exitDy=0;entryX=0;entryY=0.5;entryDx=0;entryDy=0;" parent="1" source="GBpQVhTk9KxDPRQjgbmB-1" target="GBpQVhTk9KxDPRQjgbmB-4" edge="1">
          <mxGeometry relative="1" as="geometry" />
        </mxCell>
        <mxCell id="GBpQVhTk9KxDPRQjgbmB-11" style="edgeStyle=orthogonalEdgeStyle;rounded=0;orthogonalLoop=1;jettySize=auto;html=1;exitX=1;exitY=0.5;exitDx=0;exitDy=0;entryX=0;entryY=0.5;entryDx=0;entryDy=0;" parent="1" source="GBpQVhTk9KxDPRQjgbmB-1" target="GBpQVhTk9KxDPRQjgbmB-6" edge="1">
          <mxGeometry relative="1" as="geometry">
            <mxPoint x="290" y="390" as="targetPoint" />
          </mxGeometry>
        </mxCell>
        <mxCell id="GBpQVhTk9KxDPRQjgbmB-12" style="edgeStyle=orthogonalEdgeStyle;rounded=0;orthogonalLoop=1;jettySize=auto;html=1;entryX=0;entryY=0.5;entryDx=0;entryDy=0;exitX=1;exitY=0.5;exitDx=0;exitDy=0;" parent="1" source="z8FbhvkW46ZyqsgCDVF_-14" target="GBpQVhTk9KxDPRQjgbmB-7" edge="1">
          <mxGeometry relative="1" as="geometry">
            <mxPoint x="480" y="570" as="sourcePoint" />
          </mxGeometry>
        </mxCell>
        <mxCell id="SLsrdyDVqO_aE2-8c7I_-2" style="edgeStyle=orthogonalEdgeStyle;rounded=0;orthogonalLoop=1;jettySize=auto;html=1;exitX=1;exitY=0.5;exitDx=0;exitDy=0;entryX=0;entryY=0.5;entryDx=0;entryDy=0;" parent="1" source="GBpQVhTk9KxDPRQjgbmB-1" target="SLsrdyDVqO_aE2-8c7I_-1" edge="1">
          <mxGeometry relative="1" as="geometry" />
        </mxCell>
        <mxCell id="ySN6mnR29yhOzEf8zuOG-4" style="edgeStyle=orthogonalEdgeStyle;rounded=0;orthogonalLoop=1;jettySize=auto;html=1;exitX=1;exitY=0.5;exitDx=0;exitDy=0;entryX=0;entryY=0.5;entryDx=0;entryDy=0;" parent="1" source="z8FbhvkW46ZyqsgCDVF_-14" target="ySN6mnR29yhOzEf8zuOG-3" edge="1">
          <mxGeometry relative="1" as="geometry">
            <mxPoint x="480" y="570" as="sourcePoint" />
          </mxGeometry>
        </mxCell>
        <mxCell id="z8FbhvkW46ZyqsgCDVF_-9" style="edgeStyle=orthogonalEdgeStyle;rounded=0;orthogonalLoop=1;jettySize=auto;html=1;exitX=0.5;exitY=1;exitDx=0;exitDy=0;entryX=0.5;entryY=0;entryDx=0;entryDy=0;fontSize=20;" parent="1" source="GBpQVhTk9KxDPRQjgbmB-1" target="z8FbhvkW46ZyqsgCDVF_-4" edge="1">
          <mxGeometry relative="1" as="geometry" />
        </mxCell>
        <mxCell id="z8FbhvkW46ZyqsgCDVF_-16" style="edgeStyle=orthogonalEdgeStyle;rounded=0;orthogonalLoop=1;jettySize=auto;html=1;exitX=1;exitY=0.5;exitDx=0;exitDy=0;entryX=0;entryY=0.5;entryDx=0;entryDy=0;fontSize=20;" parent="1" source="GBpQVhTk9KxDPRQjgbmB-1" target="z8FbhvkW46ZyqsgCDVF_-14" edge="1">
          <mxGeometry relative="1" as="geometry" />
        </mxCell>
        <mxCell id="DAb_E89MeZRaqiROTq5Q-5" style="edgeStyle=orthogonalEdgeStyle;rounded=0;orthogonalLoop=1;jettySize=auto;html=1;exitX=1;exitY=0.5;exitDx=0;exitDy=0;entryX=0;entryY=0.5;entryDx=0;entryDy=0;" parent="1" source="GBpQVhTk9KxDPRQjgbmB-1" target="DAb_E89MeZRaqiROTq5Q-4" edge="1">
          <mxGeometry relative="1" as="geometry" />
        </mxCell>
        <mxCell id="r6f7EZ2_6Z-Kg6KgqbPp-11" style="edgeStyle=orthogonalEdgeStyle;rounded=0;orthogonalLoop=1;jettySize=auto;html=1;exitX=1;exitY=0.5;exitDx=0;exitDy=0;entryX=0;entryY=0.5;entryDx=0;entryDy=0;fontSize=17;" parent="1" source="GBpQVhTk9KxDPRQjgbmB-1" target="r6f7EZ2_6Z-Kg6KgqbPp-8" edge="1">
          <mxGeometry relative="1" as="geometry" />
        </mxCell>
        <mxCell id="GBpQVhTk9KxDPRQjgbmB-1" value="中药方剂&lt;br&gt;大数据平台" style="rounded=1;whiteSpace=wrap;html=1;fontSize=15;fillColor=#008a00;strokeColor=#005700;fontColor=#ffffff;" parent="1" vertex="1">
          <mxGeometry x="160" y="240" width="120" height="80" as="geometry" />
        </mxCell>
        <mxCell id="GBpQVhTk9KxDPRQjgbmB-15" style="edgeStyle=orthogonalEdgeStyle;rounded=0;orthogonalLoop=1;jettySize=auto;html=1;exitX=1;exitY=0.5;exitDx=0;exitDy=0;entryX=0;entryY=0.5;entryDx=0;entryDy=0;" parent="1" source="GBpQVhTk9KxDPRQjgbmB-2" target="GBpQVhTk9KxDPRQjgbmB-5" edge="1">
          <mxGeometry relative="1" as="geometry" />
        </mxCell>
        <mxCell id="r6f7EZ2_6Z-Kg6KgqbPp-7" style="edgeStyle=orthogonalEdgeStyle;rounded=0;orthogonalLoop=1;jettySize=auto;html=1;exitX=1;exitY=0.5;exitDx=0;exitDy=0;entryX=0;entryY=0.5;entryDx=0;entryDy=0;fontSize=17;" parent="1" source="GBpQVhTk9KxDPRQjgbmB-2" target="r6f7EZ2_6Z-Kg6KgqbPp-6" edge="1">
          <mxGeometry relative="1" as="geometry" />
        </mxCell>
        <mxCell id="GBpQVhTk9KxDPRQjgbmB-2" value="首页" style="rounded=1;whiteSpace=wrap;html=1;fontSize=15;fillColor=#d5e8d4;strokeColor=#82b366;" parent="1" vertex="1">
          <mxGeometry x="330" y="40" width="120" height="40" as="geometry" />
        </mxCell>
        <mxCell id="GBpQVhTk9KxDPRQjgbmB-3" value="登录与注册" style="rounded=1;whiteSpace=wrap;html=1;fontSize=15;fillColor=#d5e8d4;strokeColor=#82b366;" parent="1" vertex="1">
          <mxGeometry x="330" y="-20" width="120" height="40" as="geometry" />
        </mxCell>
        <mxCell id="GBpQVhTk9KxDPRQjgbmB-16" style="edgeStyle=orthogonalEdgeStyle;rounded=0;orthogonalLoop=1;jettySize=auto;html=1;exitX=1;exitY=0.5;exitDx=0;exitDy=0;entryX=0;entryY=0.5;entryDx=0;entryDy=0;" parent="1" source="GBpQVhTk9KxDPRQjgbmB-4" target="GBpQVhTk9KxDPRQjgbmB-14" edge="1">
          <mxGeometry relative="1" as="geometry" />
        </mxCell>
        <mxCell id="0YCFfEILquXOQMnymZaD-18" style="edgeStyle=orthogonalEdgeStyle;rounded=0;orthogonalLoop=1;jettySize=auto;html=1;exitX=1;exitY=0.5;exitDx=0;exitDy=0;entryX=0;entryY=0.5;entryDx=0;entryDy=0;fontSize=15;" parent="1" source="GBpQVhTk9KxDPRQjgbmB-4" target="0YCFfEILquXOQMnymZaD-17" edge="1">
          <mxGeometry relative="1" as="geometry" />
        </mxCell>
        <mxCell id="GBpQVhTk9KxDPRQjgbmB-4" value="可视化" style="rounded=1;whiteSpace=wrap;html=1;fontSize=15;fillColor=#d5e8d4;strokeColor=#82b366;" parent="1" vertex="1">
          <mxGeometry x="330" y="260" width="120" height="40" as="geometry" />
        </mxCell>
        <mxCell id="GBpQVhTk9KxDPRQjgbmB-5" value="方剂卡片" style="rounded=1;whiteSpace=wrap;html=1;fontSize=15;fillColor=#d5e8d4;strokeColor=#82b366;" parent="1" vertex="1">
          <mxGeometry x="567.5" y="40" width="120" height="40" as="geometry" />
        </mxCell>
        <mxCell id="GBpQVhTk9KxDPRQjgbmB-18" style="edgeStyle=orthogonalEdgeStyle;rounded=0;orthogonalLoop=1;jettySize=auto;html=1;exitX=1;exitY=0.5;exitDx=0;exitDy=0;entryX=0;entryY=0.5;entryDx=0;entryDy=0;" parent="1" source="GBpQVhTk9KxDPRQjgbmB-6" target="GBpQVhTk9KxDPRQjgbmB-13" edge="1">
          <mxGeometry relative="1" as="geometry" />
        </mxCell>
        <mxCell id="GBpQVhTk9KxDPRQjgbmB-6" value="词云" style="rounded=1;whiteSpace=wrap;html=1;fontSize=15;fillColor=#d5e8d4;strokeColor=#82b366;" parent="1" vertex="1">
          <mxGeometry x="330" y="360" width="120" height="40" as="geometry" />
        </mxCell>
        <mxCell id="GBpQVhTk9KxDPRQjgbmB-7" value="身份证识别" style="rounded=1;whiteSpace=wrap;html=1;fontSize=15;fillColor=#fff2cc;strokeColor=#d6b656;" parent="1" vertex="1">
          <mxGeometry x="520" y="500" width="120" height="40" as="geometry" />
        </mxCell>
        <mxCell id="GBpQVhTk9KxDPRQjgbmB-13" value="[主治症候] 词云" style="rounded=1;whiteSpace=wrap;html=1;fontSize=15;fillColor=#d5e8d4;strokeColor=#82b366;" parent="1" vertex="1">
          <mxGeometry x="510" y="360" width="145" height="40" as="geometry" />
        </mxCell>
        <mxCell id="EjBGtmn64PD8jTdNR0ln-2" style="edgeStyle=orthogonalEdgeStyle;rounded=0;orthogonalLoop=1;jettySize=auto;html=1;exitX=1;exitY=0.5;exitDx=0;exitDy=0;entryX=0;entryY=0.5;entryDx=0;entryDy=0;" parent="1" source="GBpQVhTk9KxDPRQjgbmB-14" target="EjBGtmn64PD8jTdNR0ln-1" edge="1">
          <mxGeometry relative="1" as="geometry" />
        </mxCell>
        <mxCell id="GBpQVhTk9KxDPRQjgbmB-14" value="Echarts分析大屏" style="rounded=1;whiteSpace=wrap;html=1;fontSize=15;fillColor=#d5e8d4;strokeColor=#82b366;" parent="1" vertex="1">
          <mxGeometry x="515" y="220" width="120" height="40" as="geometry" />
        </mxCell>
        <mxCell id="SLsrdyDVqO_aE2-8c7I_-6" value="" style="edgeStyle=orthogonalEdgeStyle;rounded=0;orthogonalLoop=1;jettySize=auto;html=1;entryX=0.5;entryY=1;entryDx=0;entryDy=0;" parent="1" source="SLsrdyDVqO_aE2-8c7I_-1" target="GBpQVhTk9KxDPRQjgbmB-5" edge="1">
          <mxGeometry relative="1" as="geometry">
            <mxPoint x="520" y="100" as="targetPoint" />
          </mxGeometry>
        </mxCell>
        <mxCell id="SLsrdyDVqO_aE2-8c7I_-1" value="方剂搜索" style="rounded=1;whiteSpace=wrap;html=1;fontSize=15;fillColor=#d5e8d4;strokeColor=#82b366;" parent="1" vertex="1">
          <mxGeometry x="330" y="100" width="120" height="40" as="geometry" />
        </mxCell>
        <mxCell id="ySN6mnR29yhOzEf8zuOG-1" value="百度AI图像识别" style="rounded=1;whiteSpace=wrap;html=1;fontSize=15;fillColor=#fff2cc;strokeColor=#d6b656;" parent="1" vertex="1">
          <mxGeometry x="690" y="500" width="120" height="40" as="geometry" />
        </mxCell>
        <mxCell id="ySN6mnR29yhOzEf8zuOG-2" style="edgeStyle=orthogonalEdgeStyle;rounded=0;orthogonalLoop=1;jettySize=auto;html=1;exitX=1;exitY=0.5;exitDx=0;exitDy=0;" parent="1" source="GBpQVhTk9KxDPRQjgbmB-7" edge="1">
          <mxGeometry relative="1" as="geometry">
            <mxPoint x="650" y="460" as="sourcePoint" />
            <mxPoint x="690" y="520" as="targetPoint" />
          </mxGeometry>
        </mxCell>
        <mxCell id="EjBGtmn64PD8jTdNR0ln-4" style="edgeStyle=orthogonalEdgeStyle;rounded=0;orthogonalLoop=1;jettySize=auto;html=1;exitX=1;exitY=0.5;exitDx=0;exitDy=0;entryX=0;entryY=0.5;entryDx=0;entryDy=0;" parent="1" source="ySN6mnR29yhOzEf8zuOG-3" target="EjBGtmn64PD8jTdNR0ln-3" edge="1">
          <mxGeometry relative="1" as="geometry" />
        </mxCell>
        <mxCell id="ySN6mnR29yhOzEf8zuOG-3" value="修改个人信息" style="rounded=1;whiteSpace=wrap;html=1;fontSize=15;fillColor=#d5e8d4;strokeColor=#82b366;" parent="1" vertex="1">
          <mxGeometry x="522.5" y="570" width="120" height="40" as="geometry" />
        </mxCell>
        <mxCell id="EjBGtmn64PD8jTdNR0ln-1" value="知识图谱、柱状图、饼图、折线图等" style="rounded=1;whiteSpace=wrap;html=1;fontSize=15;fillColor=#d5e8d4;strokeColor=#82b366;" parent="1" vertex="1">
          <mxGeometry x="677.5" y="217.5" width="145" height="45" as="geometry" />
        </mxCell>
        <mxCell id="EjBGtmn64PD8jTdNR0ln-3" value="阿里短信验证码修改密码" style="rounded=1;whiteSpace=wrap;html=1;fontSize=15;fillColor=#fff2cc;strokeColor=#d6b656;" parent="1" vertex="1">
          <mxGeometry x="690" y="570" width="120" height="40" as="geometry" />
        </mxCell>
        <mxCell id="z8FbhvkW46ZyqsgCDVF_-10" style="edgeStyle=orthogonalEdgeStyle;rounded=0;orthogonalLoop=1;jettySize=auto;html=1;exitX=0.5;exitY=1;exitDx=0;exitDy=0;entryX=0.5;entryY=0;entryDx=0;entryDy=0;fontSize=20;" parent="1" source="z8FbhvkW46ZyqsgCDVF_-4" target="z8FbhvkW46ZyqsgCDVF_-5" edge="1">
          <mxGeometry relative="1" as="geometry" />
        </mxCell>
        <mxCell id="z8FbhvkW46ZyqsgCDVF_-4" value="爬虫模块" style="rounded=1;whiteSpace=wrap;html=1;fontSize=15;fillColor=#fad9d5;strokeColor=#ae4132;" parent="1" vertex="1">
          <mxGeometry x="90" y="380" width="120" height="40" as="geometry" />
        </mxCell>
        <mxCell id="z8FbhvkW46ZyqsgCDVF_-5" value="中药药材&lt;br&gt;信息" style="rounded=1;whiteSpace=wrap;html=1;fontSize=15;fillColor=#fad9d5;strokeColor=#ae4132;" parent="1" vertex="1">
          <mxGeometry x="110.83" y="460" width="80" height="140" as="geometry" />
        </mxCell>
        <mxCell id="z8FbhvkW46ZyqsgCDVF_-14" value="设置" style="rounded=1;whiteSpace=wrap;html=1;fontSize=15;fillColor=#d5e8d4;strokeColor=#82b366;" parent="1" vertex="1">
          <mxGeometry x="330" y="570" width="120" height="40" as="geometry" />
        </mxCell>
        <mxCell id="r6f7EZ2_6Z-Kg6KgqbPp-20" style="edgeStyle=orthogonalEdgeStyle;rounded=0;orthogonalLoop=1;jettySize=auto;html=1;exitX=1;exitY=0.5;exitDx=0;exitDy=0;entryX=0;entryY=0.5;entryDx=0;entryDy=0;fontSize=17;" parent="1" source="DAb_E89MeZRaqiROTq5Q-3" target="r6f7EZ2_6Z-Kg6KgqbPp-19" edge="1">
          <mxGeometry relative="1" as="geometry" />
        </mxCell>
        <mxCell id="DAb_E89MeZRaqiROTq5Q-3" value="交互式的知识图谱" style="rounded=1;whiteSpace=wrap;html=1;fontSize=15;fillColor=#1ba1e2;strokeColor=#006EAF;fontColor=#ffffff;" parent="1" vertex="1">
          <mxGeometry x="510" y="430" width="140" height="40" as="geometry" />
        </mxCell>
        <mxCell id="DAb_E89MeZRaqiROTq5Q-6" style="edgeStyle=orthogonalEdgeStyle;rounded=0;orthogonalLoop=1;jettySize=auto;html=1;exitX=1;exitY=0.5;exitDx=0;exitDy=0;entryX=0;entryY=0.5;entryDx=0;entryDy=0;" parent="1" source="DAb_E89MeZRaqiROTq5Q-4" target="DAb_E89MeZRaqiROTq5Q-3" edge="1">
          <mxGeometry relative="1" as="geometry" />
        </mxCell>
        <mxCell id="DAb_E89MeZRaqiROTq5Q-4" value="&amp;nbsp; &amp;nbsp; &amp;nbsp; &amp;nbsp;知识图谱" style="rounded=1;whiteSpace=wrap;html=1;fontSize=15;fillColor=#1ba1e2;strokeColor=#006EAF;fontColor=#ffffff;" parent="1" vertex="1">
          <mxGeometry x="330" y="430" width="120" height="40" as="geometry" />
        </mxCell>
        <mxCell id="dzNJQtH1lF4GbQgVGkNk-4" style="edgeStyle=orthogonalEdgeStyle;rounded=0;orthogonalLoop=1;jettySize=auto;html=1;exitX=1;exitY=0.5;exitDx=0;exitDy=0;entryX=0;entryY=0.5;entryDx=0;entryDy=0;fontSize=15;" parent="1" source="dzNJQtH1lF4GbQgVGkNk-1" target="dzNJQtH1lF4GbQgVGkNk-2" edge="1">
          <mxGeometry relative="1" as="geometry" />
        </mxCell>
        <mxCell id="dzNJQtH1lF4GbQgVGkNk-1" value="评分数据集" style="rounded=1;whiteSpace=wrap;html=1;fontSize=15;fillColor=#d5e8d4;strokeColor=#82b366;" parent="1" vertex="1">
          <mxGeometry x="207.5" y="1610" width="120" height="60" as="geometry" />
        </mxCell>
        <mxCell id="dzNJQtH1lF4GbQgVGkNk-5" style="edgeStyle=orthogonalEdgeStyle;rounded=0;orthogonalLoop=1;jettySize=auto;html=1;exitX=1;exitY=0.5;exitDx=0;exitDy=0;entryX=0;entryY=0.5;entryDx=0;entryDy=0;fontSize=15;" parent="1" source="dzNJQtH1lF4GbQgVGkNk-2" target="dzNJQtH1lF4GbQgVGkNk-3" edge="1">
          <mxGeometry relative="1" as="geometry" />
        </mxCell>
        <mxCell id="dzNJQtH1lF4GbQgVGkNk-2" value="协同过滤" style="rounded=1;whiteSpace=wrap;html=1;fontSize=15;fillColor=#d5e8d4;strokeColor=#82b366;" parent="1" vertex="1">
          <mxGeometry x="392.5" y="1610" width="120" height="60" as="geometry" />
        </mxCell>
        <mxCell id="dzNJQtH1lF4GbQgVGkNk-14" style="edgeStyle=orthogonalEdgeStyle;rounded=0;orthogonalLoop=1;jettySize=auto;html=1;exitX=0.5;exitY=1;exitDx=0;exitDy=0;fontSize=16;" parent="1" source="dzNJQtH1lF4GbQgVGkNk-3" target="dzNJQtH1lF4GbQgVGkNk-9" edge="1">
          <mxGeometry relative="1" as="geometry">
            <Array as="points">
              <mxPoint x="627.5" y="1920" />
            </Array>
          </mxGeometry>
        </mxCell>
        <mxCell id="dzNJQtH1lF4GbQgVGkNk-3" value="推荐" style="rounded=1;whiteSpace=wrap;html=1;fontSize=15;fillColor=#ffe6cc;strokeColor=#d79b00;" parent="1" vertex="1">
          <mxGeometry x="567.5" y="1610" width="120" height="60" as="geometry" />
        </mxCell>
        <mxCell id="dzNJQtH1lF4GbQgVGkNk-12" style="edgeStyle=orthogonalEdgeStyle;rounded=0;orthogonalLoop=1;jettySize=auto;html=1;entryX=0.5;entryY=1;entryDx=0;entryDy=0;fontSize=16;" parent="1" source="dzNJQtH1lF4GbQgVGkNk-6" target="dzNJQtH1lF4GbQgVGkNk-1" edge="1">
          <mxGeometry relative="1" as="geometry">
            <Array as="points">
              <mxPoint x="206.5" y="1700" />
              <mxPoint x="267.5" y="1700" />
            </Array>
          </mxGeometry>
        </mxCell>
        <mxCell id="dzNJQtH1lF4GbQgVGkNk-6" value="5分" style="aspect=fixed;html=1;points=[];align=center;image;fontSize=16;image=img/lib/azure2/general/Heart.svg;" parent="1" vertex="1">
          <mxGeometry x="184.82999999999998" y="1740" width="42.67" height="40" as="geometry" />
        </mxCell>
        <mxCell id="dzNJQtH1lF4GbQgVGkNk-13" style="edgeStyle=orthogonalEdgeStyle;rounded=0;orthogonalLoop=1;jettySize=auto;html=1;entryX=0.5;entryY=1;entryDx=0;entryDy=0;fontSize=16;" parent="1" source="dzNJQtH1lF4GbQgVGkNk-7" target="dzNJQtH1lF4GbQgVGkNk-1" edge="1">
          <mxGeometry relative="1" as="geometry">
            <Array as="points">
              <mxPoint x="327.5" y="1700" />
              <mxPoint x="267.5" y="1700" />
            </Array>
          </mxGeometry>
        </mxCell>
        <mxCell id="dzNJQtH1lF4GbQgVGkNk-7" value="0~5分" style="shape=image;html=1;verticalAlign=top;verticalLabelPosition=bottom;labelBackgroundColor=#ffffff;imageAspect=0;aspect=fixed;image=https://cdn1.iconfinder.com/data/icons/filled-line-christmas-icons/75/_star-128.png;fontSize=15;" parent="1" vertex="1">
          <mxGeometry x="297.5" y="1730" width="60" height="60" as="geometry" />
        </mxCell>
        <mxCell id="dzNJQtH1lF4GbQgVGkNk-10" value="" style="edgeStyle=orthogonalEdgeStyle;rounded=0;orthogonalLoop=1;jettySize=auto;html=1;fontSize=16;" parent="1" source="dzNJQtH1lF4GbQgVGkNk-9" edge="1">
          <mxGeometry relative="1" as="geometry">
            <mxPoint x="327.5" y="1820" as="targetPoint" />
          </mxGeometry>
        </mxCell>
        <mxCell id="dzNJQtH1lF4GbQgVGkNk-11" style="edgeStyle=orthogonalEdgeStyle;rounded=0;orthogonalLoop=1;jettySize=auto;html=1;fontSize=16;" parent="1" source="dzNJQtH1lF4GbQgVGkNk-9" edge="1">
          <mxGeometry relative="1" as="geometry">
            <mxPoint x="207.5" y="1820" as="targetPoint" />
          </mxGeometry>
        </mxCell>
        <mxCell id="dzNJQtH1lF4GbQgVGkNk-9" value="用户" style="sketch=0;pointerEvents=1;shadow=0;dashed=0;html=1;strokeColor=none;labelPosition=center;verticalLabelPosition=bottom;verticalAlign=top;outlineConnect=0;align=center;shape=mxgraph.office.users.user;fillColor=#7FBA42;fontSize=16;" parent="1" vertex="1">
          <mxGeometry x="238.16000000000003" y="1870" width="64.67" height="70" as="geometry" />
        </mxCell>
        <mxCell id="dzNJQtH1lF4GbQgVGkNk-17" value="" style="edgeStyle=orthogonalEdgeStyle;rounded=0;orthogonalLoop=1;jettySize=auto;html=1;fontSize=16;" parent="1" target="dzNJQtH1lF4GbQgVGkNk-1" edge="1">
          <mxGeometry relative="1" as="geometry">
            <mxPoint x="267.83" y="1570" as="sourcePoint" />
          </mxGeometry>
        </mxCell>
        <mxCell id="dzNJQtH1lF4GbQgVGkNk-16" value="N个其他用户的评分" style="sketch=0;pointerEvents=1;shadow=0;dashed=0;html=1;strokeColor=none;labelPosition=center;verticalLabelPosition=bottom;verticalAlign=top;outlineConnect=0;align=center;shape=mxgraph.office.users.users;fillColor=#7FBA42;fontSize=16;" parent="1" vertex="1">
          <mxGeometry x="225" y="1450" width="85" height="70" as="geometry" />
        </mxCell>
        <mxCell id="0YCFfEILquXOQMnymZaD-11" value="" style="edgeStyle=orthogonalEdgeStyle;rounded=0;orthogonalLoop=1;jettySize=auto;html=1;fontSize=15;" parent="1" source="0YCFfEILquXOQMnymZaD-1" target="0YCFfEILquXOQMnymZaD-2" edge="1">
          <mxGeometry relative="1" as="geometry" />
        </mxCell>
        <mxCell id="0YCFfEILquXOQMnymZaD-1" value="爬虫" style="shape=image;html=1;verticalAlign=top;verticalLabelPosition=bottom;labelBackgroundColor=#ffffff;imageAspect=0;aspect=fixed;image=https://cdn2.iconfinder.com/data/icons/free-solid-halloween-icons/24/Spider-128.png;fontSize=15;" parent="1" vertex="1">
          <mxGeometry x="96" y="1030" width="70" height="70" as="geometry" />
        </mxCell>
        <mxCell id="r6f7EZ2_6Z-Kg6KgqbPp-5" style="edgeStyle=orthogonalEdgeStyle;rounded=0;orthogonalLoop=1;jettySize=auto;html=1;exitX=1;exitY=0.5;exitDx=0;exitDy=0;entryX=0;entryY=0.5;entryDx=0;entryDy=0;fontSize=17;" parent="1" source="0YCFfEILquXOQMnymZaD-2" target="0YCFfEILquXOQMnymZaD-5" edge="1">
          <mxGeometry relative="1" as="geometry" />
        </mxCell>
        <mxCell id="0YCFfEILquXOQMnymZaD-2" value="中药药材信息" style="rounded=1;whiteSpace=wrap;html=1;fontSize=15;fillColor=#ffe6cc;strokeColor=#d79b00;" parent="1" vertex="1">
          <mxGeometry x="81" y="1200" width="100" height="60" as="geometry" />
        </mxCell>
        <mxCell id="0YCFfEILquXOQMnymZaD-14" value="" style="edgeStyle=orthogonalEdgeStyle;rounded=0;orthogonalLoop=1;jettySize=auto;html=1;fontSize=15;" parent="1" source="0YCFfEILquXOQMnymZaD-5" target="0YCFfEILquXOQMnymZaD-7" edge="1">
          <mxGeometry relative="1" as="geometry" />
        </mxCell>
        <mxCell id="0YCFfEILquXOQMnymZaD-5" value="MySQL数据库" style="rounded=1;whiteSpace=wrap;html=1;fontSize=15;fillColor=#dae8fc;strokeColor=#6c8ebf;" parent="1" vertex="1">
          <mxGeometry x="251.5" y="1200" width="120" height="60" as="geometry" />
        </mxCell>
        <mxCell id="0YCFfEILquXOQMnymZaD-15" value="" style="edgeStyle=orthogonalEdgeStyle;rounded=0;orthogonalLoop=1;jettySize=auto;html=1;fontSize=15;" parent="1" source="0YCFfEILquXOQMnymZaD-7" target="0YCFfEILquXOQMnymZaD-8" edge="1">
          <mxGeometry relative="1" as="geometry" />
        </mxCell>
        <mxCell id="0YCFfEILquXOQMnymZaD-7" value="FLASK 后端" style="rounded=1;whiteSpace=wrap;html=1;fontSize=15;fillColor=#dae8fc;strokeColor=#6c8ebf;" parent="1" vertex="1">
          <mxGeometry x="371.50000000000006" y="1050" width="120" height="60" as="geometry" />
        </mxCell>
        <mxCell id="0YCFfEILquXOQMnymZaD-8" value="Vue前端" style="rounded=1;whiteSpace=wrap;html=1;fontSize=15;fillColor=#dae8fc;strokeColor=#6c8ebf;" parent="1" vertex="1">
          <mxGeometry x="371.50000000000006" y="940" width="120" height="60" as="geometry" />
        </mxCell>
        <mxCell id="0YCFfEILquXOQMnymZaD-16" style="edgeStyle=orthogonalEdgeStyle;rounded=0;orthogonalLoop=1;jettySize=auto;html=1;entryX=0.5;entryY=0;entryDx=0;entryDy=0;fontSize=15;" parent="1" source="0YCFfEILquXOQMnymZaD-10" target="0YCFfEILquXOQMnymZaD-8" edge="1">
          <mxGeometry relative="1" as="geometry" />
        </mxCell>
        <mxCell id="0YCFfEILquXOQMnymZaD-10" value="浏览器访问" style="points=[];aspect=fixed;html=1;align=center;shadow=0;dashed=0;image;image=img/lib/allied_telesis/computer_and_terminals/Personal_Computer.svg;fontSize=15;" parent="1" vertex="1">
          <mxGeometry x="404.12" y="790" width="54.76" height="74.21" as="geometry" />
        </mxCell>
        <mxCell id="0YCFfEILquXOQMnymZaD-17" value="中药关键词提取、临床关键词分析" style="rounded=1;whiteSpace=wrap;html=1;fontSize=15;fillColor=#d5e8d4;strokeColor=#82b366;" parent="1" vertex="1">
          <mxGeometry x="515" y="290" width="255" height="40" as="geometry" />
        </mxCell>
        <mxCell id="r6f7EZ2_6Z-Kg6KgqbPp-1" value="方剂信息" style="shape=image;html=1;verticalAlign=top;verticalLabelPosition=bottom;labelBackgroundColor=#ffffff;imageAspect=0;aspect=fixed;image=https://cdn0.iconfinder.com/data/icons/logos-microsoft-office-365/128/Microsoft_Office-02-128.png;fontSize=17;" parent="1" vertex="1">
          <mxGeometry x="685.17" y="1090" width="60" height="60" as="geometry" />
        </mxCell>
        <mxCell id="r6f7EZ2_6Z-Kg6KgqbPp-3" style="edgeStyle=orthogonalEdgeStyle;rounded=0;orthogonalLoop=1;jettySize=auto;html=1;fontSize=17;exitX=0.5;exitY=1;exitDx=0;exitDy=0;entryX=1;entryY=0.5;entryDx=0;entryDy=0;" parent="1" source="r6f7EZ2_6Z-Kg6KgqbPp-1" target="r6f7EZ2_6Z-Kg6KgqbPp-2" edge="1">
          <mxGeometry relative="1" as="geometry">
            <mxPoint x="715.17" y="1240" as="targetPoint" />
            <mxPoint x="705.17" y="1180" as="sourcePoint" />
          </mxGeometry>
        </mxCell>
        <mxCell id="r6f7EZ2_6Z-Kg6KgqbPp-4" style="edgeStyle=orthogonalEdgeStyle;rounded=0;orthogonalLoop=1;jettySize=auto;html=1;exitX=0.5;exitY=0;exitDx=0;exitDy=0;entryX=0.5;entryY=1;entryDx=0;entryDy=0;fontSize=17;" parent="1" source="r6f7EZ2_6Z-Kg6KgqbPp-2" target="0YCFfEILquXOQMnymZaD-7" edge="1">
          <mxGeometry relative="1" as="geometry" />
        </mxCell>
        <mxCell id="r6f7EZ2_6Z-Kg6KgqbPp-2" value="Neo4J数据库" style="rounded=1;whiteSpace=wrap;html=1;fontSize=15;fillColor=#dae8fc;strokeColor=#6c8ebf;" parent="1" vertex="1">
          <mxGeometry x="475.17" y="1200" width="120" height="60" as="geometry" />
        </mxCell>
        <mxCell id="r6f7EZ2_6Z-Kg6KgqbPp-6" value="轮播图" style="rounded=1;whiteSpace=wrap;html=1;fontSize=15;fillColor=#f5f5f5;strokeColor=#666666;fontColor=#333333;" parent="1" vertex="1">
          <mxGeometry x="567.5" y="-30" width="120" height="40" as="geometry" />
        </mxCell>
        <mxCell id="r6f7EZ2_6Z-Kg6KgqbPp-12" style="edgeStyle=orthogonalEdgeStyle;rounded=0;orthogonalLoop=1;jettySize=auto;html=1;exitX=1;exitY=0.5;exitDx=0;exitDy=0;entryX=0;entryY=0.5;entryDx=0;entryDy=0;fontSize=17;" parent="1" source="r6f7EZ2_6Z-Kg6KgqbPp-8" target="r6f7EZ2_6Z-Kg6KgqbPp-9" edge="1">
          <mxGeometry relative="1" as="geometry" />
        </mxCell>
        <mxCell id="r6f7EZ2_6Z-Kg6KgqbPp-8" value="药材搜索" style="rounded=1;whiteSpace=wrap;html=1;fontSize=15;fillColor=#d5e8d4;strokeColor=#82b366;" parent="1" vertex="1">
          <mxGeometry x="330" y="160" width="120" height="40" as="geometry" />
        </mxCell>
        <mxCell id="r6f7EZ2_6Z-Kg6KgqbPp-13" style="edgeStyle=orthogonalEdgeStyle;rounded=0;orthogonalLoop=1;jettySize=auto;html=1;exitX=1;exitY=0.5;exitDx=0;exitDy=0;entryX=0;entryY=0.5;entryDx=0;entryDy=0;fontSize=17;" parent="1" source="r6f7EZ2_6Z-Kg6KgqbPp-9" target="r6f7EZ2_6Z-Kg6KgqbPp-10" edge="1">
          <mxGeometry relative="1" as="geometry" />
        </mxCell>
        <mxCell id="r6f7EZ2_6Z-Kg6KgqbPp-9" value="药材卡片" style="rounded=1;whiteSpace=wrap;html=1;fontSize=15;fillColor=#d5e8d4;strokeColor=#82b366;" parent="1" vertex="1">
          <mxGeometry x="491.5" y="160" width="120" height="40" as="geometry" />
        </mxCell>
        <mxCell id="r6f7EZ2_6Z-Kg6KgqbPp-10" value="详情" style="rounded=1;whiteSpace=wrap;html=1;fontSize=15;fillColor=#d5e8d4;strokeColor=#82b366;" parent="1" vertex="1">
          <mxGeometry x="650" y="160" width="120" height="40" as="geometry" />
        </mxCell>
        <mxCell id="r6f7EZ2_6Z-Kg6KgqbPp-18" value="" style="shape=image;html=1;verticalAlign=top;verticalLabelPosition=bottom;labelBackgroundColor=#ffffff;imageAspect=0;aspect=fixed;image=https://cdn1.iconfinder.com/data/icons/filled-line-christmas-icons/75/_star-128.png;fontSize=17;" parent="1" vertex="1">
          <mxGeometry x="327.5" y="426.5" width="47" height="47" as="geometry" />
        </mxCell>
        <mxCell id="r6f7EZ2_6Z-Kg6KgqbPp-19" value="d3.js / echarts &lt;br&gt;均实现" style="rounded=1;whiteSpace=wrap;html=1;fontSize=15;fillColor=#1ba1e2;strokeColor=#006EAF;fontColor=#ffffff;" parent="1" vertex="1">
          <mxGeometry x="680" y="430" width="140" height="40" as="geometry" />
        </mxCell>
      </root>
    </mxGraphModel>
  </diagram>
</mxfile>
